<mxfile host="app.diagrams.net" modified="2022-09-02T14:29:25.400Z" agent="5.0 (Windows)" etag="myihcVqA65JOxxYZdDIf" version="20.2.7" type="github">
  <diagram name="Page-1" id="edf60f1a-56cd-e834-aa8a-f176f3a09ee4">
    <mxGraphModel dx="1422" dy="780" grid="1" gridSize="10" guides="1" tooltips="1" connect="1" arrows="1" fold="1" page="1" pageScale="1" pageWidth="1100" pageHeight="850" background="none" math="0" shadow="0">
      <root>
        <mxCell id="0" />
        <mxCell id="1" parent="0" />
        <mxCell id="Bge0LZ-RzMQBSaj6ecSX-1" value="YouTube를 시청한다" style="rounded=1;whiteSpace=wrap;html=1;" vertex="1" parent="1">
          <mxGeometry x="322" y="80" width="120" height="61" as="geometry" />
        </mxCell>
        <mxCell id="Bge0LZ-RzMQBSaj6ecSX-2" value="" style="endArrow=classic;html=1;rounded=0;exitX=0.5;exitY=1;exitDx=0;exitDy=0;" edge="1" parent="1" source="Bge0LZ-RzMQBSaj6ecSX-1" target="Bge0LZ-RzMQBSaj6ecSX-3">
          <mxGeometry width="50" height="50" relative="1" as="geometry">
            <mxPoint x="372" y="240" as="sourcePoint" />
            <mxPoint x="382" y="200" as="targetPoint" />
          </mxGeometry>
        </mxCell>
        <mxCell id="Bge0LZ-RzMQBSaj6ecSX-3" value="광고가 나온다" style="rounded=0;whiteSpace=wrap;html=1;" vertex="1" parent="1">
          <mxGeometry x="322" y="190" width="120" height="61" as="geometry" />
        </mxCell>
        <mxCell id="Bge0LZ-RzMQBSaj6ecSX-4" value="" style="endArrow=classic;html=1;rounded=0;exitX=0.997;exitY=0.585;exitDx=0;exitDy=0;exitPerimeter=0;" edge="1" parent="1" source="Bge0LZ-RzMQBSaj6ecSX-3" target="Bge0LZ-RzMQBSaj6ecSX-5">
          <mxGeometry width="50" height="50" relative="1" as="geometry">
            <mxPoint x="372" y="240" as="sourcePoint" />
            <mxPoint x="542" y="225" as="targetPoint" />
          </mxGeometry>
        </mxCell>
        <mxCell id="Bge0LZ-RzMQBSaj6ecSX-5" value="&lt;div&gt;Premium을&lt;/div&gt;&lt;div&gt;구독하시겠습니까?&lt;br&gt;&lt;/div&gt;" style="rhombus;whiteSpace=wrap;html=1;" vertex="1" parent="1">
          <mxGeometry x="512" y="170" width="120" height="111" as="geometry" />
        </mxCell>
        <mxCell id="Bge0LZ-RzMQBSaj6ecSX-6" value="" style="endArrow=classic;html=1;rounded=0;exitX=0.5;exitY=1;exitDx=0;exitDy=0;" edge="1" parent="1" target="Bge0LZ-RzMQBSaj6ecSX-7">
          <mxGeometry width="50" height="50" relative="1" as="geometry">
            <mxPoint x="572" y="280" as="sourcePoint" />
            <mxPoint x="572" y="340" as="targetPoint" />
          </mxGeometry>
        </mxCell>
        <mxCell id="Bge0LZ-RzMQBSaj6ecSX-7" value="광고를 본다" style="rounded=0;whiteSpace=wrap;html=1;" vertex="1" parent="1">
          <mxGeometry x="512" y="330" width="120" height="61" as="geometry" />
        </mxCell>
        <mxCell id="Bge0LZ-RzMQBSaj6ecSX-11" value="" style="endArrow=classic;html=1;rounded=0;exitX=0.5;exitY=1;exitDx=0;exitDy=0;" edge="1" parent="1" source="Bge0LZ-RzMQBSaj6ecSX-7" target="Bge0LZ-RzMQBSaj6ecSX-12">
          <mxGeometry width="50" height="50" relative="1" as="geometry">
            <mxPoint x="562" y="310" as="sourcePoint" />
            <mxPoint x="572" y="450" as="targetPoint" />
          </mxGeometry>
        </mxCell>
        <mxCell id="Bge0LZ-RzMQBSaj6ecSX-12" value="유튜브를 끈다" style="rounded=0;whiteSpace=wrap;html=1;" vertex="1" parent="1">
          <mxGeometry x="512" y="430" width="120" height="61" as="geometry" />
        </mxCell>
        <mxCell id="Bge0LZ-RzMQBSaj6ecSX-13" value="아니오" style="text;html=1;strokeColor=none;fillColor=none;align=center;verticalAlign=middle;whiteSpace=wrap;rounded=0;" vertex="1" parent="1">
          <mxGeometry x="572" y="290" width="60" height="31" as="geometry" />
        </mxCell>
        <mxCell id="Bge0LZ-RzMQBSaj6ecSX-14" value="예" style="text;html=1;strokeColor=none;fillColor=none;align=center;verticalAlign=middle;whiteSpace=wrap;rounded=0;" vertex="1" parent="1">
          <mxGeometry x="632" y="195" width="60" height="31" as="geometry" />
        </mxCell>
        <mxCell id="Bge0LZ-RzMQBSaj6ecSX-15" value="" style="endArrow=classic;html=1;rounded=0;exitX=1;exitY=0.5;exitDx=0;exitDy=0;" edge="1" parent="1" source="Bge0LZ-RzMQBSaj6ecSX-5" target="Bge0LZ-RzMQBSaj6ecSX-16">
          <mxGeometry width="50" height="50" relative="1" as="geometry">
            <mxPoint x="372" y="320" as="sourcePoint" />
            <mxPoint x="742" y="225" as="targetPoint" />
          </mxGeometry>
        </mxCell>
        <mxCell id="Bge0LZ-RzMQBSaj6ecSX-16" value="&lt;div&gt;1개월 무료&lt;/div&gt;&lt;div&gt;월 10,450원 결제&lt;br&gt;&lt;/div&gt;" style="rounded=0;whiteSpace=wrap;html=1;" vertex="1" parent="1">
          <mxGeometry x="702" y="195" width="120" height="61" as="geometry" />
        </mxCell>
        <mxCell id="Bge0LZ-RzMQBSaj6ecSX-17" value="" style="endArrow=classic;html=1;rounded=0;" edge="1" parent="1" target="Bge0LZ-RzMQBSaj6ecSX-18">
          <mxGeometry width="50" height="50" relative="1" as="geometry">
            <mxPoint x="762" y="255" as="sourcePoint" />
            <mxPoint x="762" y="330" as="targetPoint" />
          </mxGeometry>
        </mxCell>
        <mxCell id="Bge0LZ-RzMQBSaj6ecSX-18" value="신나게 유튜브 시청" style="rounded=0;whiteSpace=wrap;html=1;" vertex="1" parent="1">
          <mxGeometry x="702" y="330" width="120" height="61" as="geometry" />
        </mxCell>
      </root>
    </mxGraphModel>
  </diagram>
</mxfile>
